HIERARCHY
ROOT Hips
{
	OFFSET 0.00000 0.00000 0.00000
	CHANNELS 6 Xposition Yposition Zposition Zrotation Yrotation Xrotation 
	JOINT LHipJoint
	{
		OFFSET 0 0 0
		CHANNELS 3 Zrotation Yrotation Xrotation
		JOINT LeftUpLeg
		{
			OFFSET 1.30186 -1.90722 0.65024
			CHANNELS 3 Zrotation Yrotation Xrotation
			JOINT LeftLeg
			{
				OFFSET 2.56413 -7.04489 0.00000
				CHANNELS 3 Zrotation Yrotation Xrotation
				JOINT LeftFoot
				{
					OFFSET 2.79321 -7.67428 0.00000
					CHANNELS 3 Zrotation Yrotation Xrotation
					JOINT LeftToeBase
					{
						OFFSET 0.15723 -0.43198 2.08537
						CHANNELS 3 Zrotation Yrotation Xrotation
						End Site
						{
							OFFSET 0.00000 -0.00000 1.07411
						}
					}
				}
			}
		}
	}
	JOINT RHipJoint
	{
		OFFSET 0 0 0
		CHANNELS 3 Zrotation Yrotation Xrotation
		JOINT RightUpLeg
		{
			OFFSET -1.28627 -1.90723 0.65024
			CHANNELS 3 Zrotation Yrotation Xrotation
			JOINT RightLeg
			{
				OFFSET -2.56567 -7.04913 0.00000
				CHANNELS 3 Zrotation Yrotation Xrotation
				JOINT RightFoot
				{
					OFFSET -2.75597 -7.57198 0.00000
					CHANNELS 3 Zrotation Yrotation Xrotation
					JOINT RightToeBase
					{
						OFFSET -0.17500 -0.48081 2.22901
						CHANNELS 3 Zrotation Yrotation Xrotation
						End Site
						{
							OFFSET -0.00000 -0.00000 1.14762
						}
					}
				}
			}
		}
	}
	JOINT LowerBack
	{
		OFFSET 0 0 0
		CHANNELS 3 Zrotation Yrotation Xrotation
		JOINT Spine
		{
			OFFSET -0.04522 2.07467 -0.16566
			CHANNELS 3 Zrotation Yrotation Xrotation
			JOINT Spine1
			{
				OFFSET -0.01178 2.08825 -0.05393
				CHANNELS 3 Zrotation Yrotation Xrotation
				JOINT Neck
				{
					OFFSET 0 0 0
					CHANNELS 3 Zrotation Yrotation Xrotation
					JOINT Neck1
					{
						OFFSET -0.05182 1.80489 0.16014
						CHANNELS 3 Zrotation Yrotation Xrotation
						JOINT Head
						{
							OFFSET 0.14739 1.78840 -0.33342
							CHANNELS 3 Zrotation Yrotation Xrotation
							End Site
							{
								OFFSET 0.04364 1.83899 -0.13460
							}
						}
					}
				}
				JOINT LeftShoulder
				{
					OFFSET 0 0 0
					CHANNELS 3 Zrotation Yrotation Xrotation
					JOINT LeftArm
					{
						OFFSET 3.01264 1.29090 -0.06579
						CHANNELS 3 Zrotation Yrotation Xrotation
						JOINT LeftForeArm
						{
							OFFSET 5.55680 -0.00000 0.00000
							CHANNELS 3 Zrotation Yrotation Xrotation
							JOINT LeftHand
							{
								OFFSET 3.63979 -0.00000 -0.00000
								CHANNELS 3 Zrotation Yrotation Xrotation
								JOINT LeftFingerBase
								{
									OFFSET 0 0 0
									CHANNELS 3 Zrotation Yrotation Xrotation
									JOINT LeftHandIndex1
									{
										OFFSET 0.56942 -0.00000 -0.00000
										CHANNELS 3 Zrotation Yrotation Xrotation
										End Site
										{
											OFFSET 0.45908 -0.00000 -0.00000
										}
									}
								}
								JOINT LThumb
								{
									OFFSET 0 0 0
									CHANNELS 3 Zrotation Yrotation Xrotation
									End Site
									{
										OFFSET 0.46609 -0.00000 0.46609
									}
								}
							}
						}
					}
				}
				JOINT RightShoulder
				{
					OFFSET 0 0 0
					CHANNELS 3 Zrotation Yrotation Xrotation
					JOINT RightArm
					{
						OFFSET -3.15796 1.37283 -0.36748
						CHANNELS 3 Zrotation Yrotation Xrotation
						JOINT RightForeArm
						{
							OFFSET -5.34339 -0.00000 0.00000
							CHANNELS 3 Zrotation Yrotation Xrotation
							JOINT RightHand
							{
								OFFSET -3.65101 -0.00000 -0.00000
								CHANNELS 3 Zrotation Yrotation Xrotation
								JOINT RightFingerBase
								{
									OFFSET 0 0 0
									CHANNELS 3 Zrotation Yrotation Xrotation
									JOINT RightHandIndex1
									{
										OFFSET -0.69425 -0.00000 -0.00000
										CHANNELS 3 Zrotation Yrotation Xrotation
										End Site
										{
											OFFSET -0.55972 -0.00000 -0.00000
										}
									}
								}
								JOINT RThumb
								{
									OFFSET 0 0 0
									CHANNELS 3 Zrotation Yrotation Xrotation
									End Site
									{
										OFFSET -0.56827 -0.00000 0.56827
									}
								}
							}
						}
					}
				}
			}
		}
	}
}
MOTION
Frames: 8
Frame Time: .0083333
9.4769 18.414 -13.4598 0 0 0 0 0 0 -21 0 0 0 0 0 0 0 0 0 0 0 0 0 0 21 0 0 0 0 0 0 0 0 0 0 0 0 0 0 0 0 0 0 0 0 0 0 -16 0 0 21 0 0 11 0 0 0 -8 0 0 0 0 0 0 0 0 0 0 0 0 0 0 0 0 0 0 0 0 8 0 0 0 0 0 0 0 0 0 0 0 0 0 0 0 0 0
9.4769 18.4140 -13.4598 2.5149 -6.6796 2.0481 0.0000 0.0000 0.0000 -15.6287 -5.1730 5.9031 0.0086 0.6002 1.6493 -0.0534 10.2134 -13.6574 0.1983 -2.8673 -7.9096 0.0000 0.0000 0.0000 17.6025 12.4085 2.9126 -0.4790 -4.4384 12.3133 0.2219 -12.9716 -15.3421 -0.3748 -3.9323 10.8862 -2.4017 -1.1117 -3.7700 0.6295 -1.3963 -0.7039 1.9228 -0.7097 1.4633 -10.8998 -12.9298 -4.6918 5.9757 -17.8203 18.7485 1.9835 -8.8293 8.0974 -0.0000 0.0000 0.0000 -89.7214 3.2398 -0.8915 17.3865 -27.3644 -4.2635 -0.0000 0.0000 -3.4107 29.1050 17.0377 9.2643 -7.1250 0.0000 -0.0000 1.2038 49.3036 0.1278 -0.0000 0.0000 0.0000 87.4713 -10.1163 1.7278 -19.6483 30.2163 -5.3532 0.0000 0.0000 5.4433 -15.4588 30.7940 -8.0584 7.1250 -0.0000 -0.0000 9.0615 1.4010 9.3975
9.4975 18.4112 -13.4417 2.9894 -6.6613 1.8420 0.0000 0.0000 0.0000 -16.1881 -4.8371 6.9978 0.0000 -0.0000 -0.0000 -0.1337 10.7518 -13.0626 0.2322 -3.1013 -8.5610 0.0000 0.0000 0.0000 16.9941 12.1160 2.8290 -0.5082 -4.5696 12.6849 0.1749 -12.6603 -15.5564 -0.3765 -3.9410 10.9108 -2.8260 -1.1559 -3.5152 0.5552 -1.4456 -0.7792 2.0879 -0.7322 1.2543 -10.8182 -12.8195 -4.7703 5.6457 -17.6182 18.9753 1.8838 -8.7514 8.1302 -0.0000 0.0000 0.0000 -89.8573 3.7209 -0.9513 17.2261 -27.1549 -4.1900 -0.0000 0.0000 -3.7842 29.7407 14.7066 8.2528 -7.1250 0.0000 -0.0000 2.1035 46.7882 0.0929 -0.0000 0.0000 0.0000 87.3631 -10.4169 2.0540 -19.9968 30.6385 -5.5297 0.0000 0.0000 5.0728 -15.8065 30.2989 -8.1283 7.1250 -0.0000 -0.0000 8.8135 0.9645 9.0679
9.5130 18.4113 -13.4285 3.2952 -6.7744 1.7568 0.0000 0.0000 0.0000 -16.6022 -4.6969 7.0817 0.0000 -0.0000 -0.0000 -0.1240 10.6643 -13.0985 0.2143 -2.9805 -8.2245 0.0000 0.0000 0.0000 16.5970 12.0608 2.8407 -0.5156 -4.6025 12.7783 0.1750 -12.6025 -15.4580 -0.3398 -3.7457 10.3623 -3.0296 -1.1454 -3.4177 0.4423 -1.4266 -0.8365 2.0896 -0.7209 1.1419 -10.8538 -12.6451 -4.6565 5.7262 -17.4027 19.0098 1.9490 -8.6493 8.1134 0.0000 -0.0000 0.0000 -89.7566 4.0828 -0.6491 16.8863 -26.7077 -4.0361 -0.0000 0.0000 -5.4120 31.0169 11.9560 7.1001 -7.1250 0.0000 -0.0000 3.5096 43.8308 -0.1014 0.0000 -0.0000 0.0000 87.3351 -10.4908 2.4408 -20.0548 30.7083 -5.5593 0.0000 0.0000 4.6498 -16.6475 29.7121 -8.4301 7.1250 -0.0000 -0.0000 8.2697 0.5176 8.4321
9.5239 18.4151 -13.4249 3.3334 -6.7812 1.8749 0.0000 0.0000 0.0000 -16.6754 -4.7324 6.9406 0.0000 0.0000 0.0000 -0.1286 10.6661 -13.0131 0.2115 -2.9608 -8.1698 0.0000 0.0000 0.0000 16.4992 12.2805 2.7774 -0.5203 -4.6231 12.8367 0.1531 -12.5557 -15.7210 -0.4153 -4.1365 11.4611 -3.0297 -1.1543 -3.4412 0.4213 -1.4378 -0.8626 2.0675 -0.7259 1.1283 -10.8745 -12.5131 -4.8393 5.8121 -17.2265 19.1521 1.9852 -8.5539 8.1873 -0.0000 -0.0000 0.0000 -89.6504 4.0422 -1.2077 16.8108 -26.6076 -4.0022 -0.0000 0.0000 -3.8404 29.1358 16.1666 8.8219 -7.1250 0.0000 -0.0000 1.3513 48.3354 0.1112 -0.0000 -0.0000 0.0000 87.4636 -10.5958 2.6593 -20.5060 31.2472 -5.7915 0.0000 0.0000 4.3834 -17.0261 29.2886 -8.5201 7.1250 -0.0000 -0.0000 8.0074 0.1562 8.1087
9.5363 18.4177 -13.4199 3.1988 -6.8561 1.9410 0.0000 0.0000 0.0000 -16.5712 -4.6697 6.8690 0.0000 -0.0000 -0.0000 -0.1346 10.7013 -12.9588 0.2415 -3.1623 -8.7308 0.0000 0.0000 0.0000 16.5572 12.3117 2.7481 -0.5173 -4.6097 12.7986 0.1122 -12.2431 -15.8417 -0.5225 -4.6326 12.8635 -2.8427 -1.1394 -3.4279 0.4444 -1.4252 -0.8555 1.9871 -0.7192 1.1236 -10.7855 -12.4203 -5.1291 5.7137 -17.0694 19.3171 1.9383 -8.4721 8.2623 -0.0000 -0.0000 0.0000 -89.4916 4.0151 -1.5554 16.6616 -26.4095 -3.9356 -0.0000 0.0000 -3.3513 28.1971 18.6828 9.7448 -7.1250 0.0000 -0.0000 0.0274 50.9704 0.0040 -0.0000 -0.0000 0.0000 87.5462 -10.6171 2.8634 -20.8653 31.6708 -5.9791 0.0000 0.0000 4.1893 -17.2972 29.3417 -8.6762 7.1250 -0.0000 -0.0000 7.8550 0.2560 7.9651
9.5490 18.4168 -13.4092 3.0165 -6.9817 1.9625 0.0000 0.0000 0.0000 -16.4216 -4.5253 6.8804 0.0000 0.0000 0.0000 -0.1291 10.6593 -12.9925 0.2420 -3.1655 -8.7399 0.0000 0.0000 0.0000 16.6777 12.1770 2.7704 -0.5063 -4.5613 12.6615 0.1085 -12.0790 -15.6405 -0.5014 -4.5393 12.5991 -2.6023 -1.1285 -3.5492 0.4788 -1.4154 -0.7868 1.8848 -0.7162 1.2565 -10.5964 -12.3049 -5.2221 5.5630 -16.8817 19.2354 1.8851 -8.3814 8.2032 0.0000 0.0000 0.0000 -89.3319 4.0095 -1.9445 16.4199 -26.0867 -3.8287 -0.0000 0.0000 -3.2819 28.7456 18.6841 9.9662 -7.1250 0.0000 -0.0000 0.5836 51.0707 0.0873 0.0000 0.0000 0.0000 87.5655 -10.4218 3.1535 -20.9611 31.7829 -6.0294 0.0000 0.0000 3.9525 -17.7217 29.5237 -8.9491 7.1250 -0.0000 -0.0000 7.6271 0.5132 7.7640
9.5599 18.4154 -13.3956 2.9929 -6.9696 1.9461 0.0000 0.0000 0.0000 -16.5156 -4.7999 6.1189 0.0080 0.5790 1.5910 -0.0441 10.1279 -13.6887 0.2445 -3.1821 -8.7861 0.0000 0.0000 0.0000 16.6815 12.1020 2.9583 -0.4890 -4.4838 12.4420 0.1324 -12.2217 -15.4997 -0.4544 -4.3245 11.9915 -2.5502 -1.1480 -3.5545 0.4751 -1.4437 -0.8439 1.8510 -0.7289 1.2011 -10.4372 -12.1803 -5.1111 5.3951 -16.7014 19.2158 1.8415 -8.3036 8.1317 0.0000 -0.0000 0.0000 -89.3845 4.2842 -2.5426 16.1463 -25.7186 -3.7092 -0.0000 0.0000 -2.6185 29.4559 16.3562 9.0367 -7.1250 0.0000 -0.0000 1.6415 48.5995 0.1458 0.0000 -0.0000 0.0000 87.6374 -10.5115 3.2894 -21.1115 31.9583 -6.1088 0.0000 0.0000 3.7157 -17.6114 29.4346 -8.8666 7.1250 -0.0000 -0.0000 7.6819 0.4040 7.8062
